<svg viewBox="0 0 64 64" xmlns="http://www.w3.org/2000/svg" width="64" height="64">
  <rect width="64" height="64" rx="14" fill="#18181B"/>
  <g transform="translate(31,28) rotate(-20)">
    <rect x="-3" y="12" width="6" height="15" rx="3" fill="#F2E2CC"/>
    <circle cx="0" cy="27" r="4.5" fill="#F2E2CC"/>
    <circle cx="0" cy="0" r="15" fill="#E8961E"/>
    <circle cx="-2" cy="-2" r="13" fill="#D4800F"/>
    <path d="M-9,-8 Q-14,-4 -12,2 Q-10,7 -5,10 Q0,12 5,10 Q10,7 12,2 Q14,-4 9,-8 Q5,-13 0,-14 Q-5,-13 -9,-8 Z" fill="#F0A830"/>
    <circle cx="-5" cy="-4" r="2" fill="#C07008" opacity="0.45"/>
    <circle cx="5" cy="1" r="1.6" fill="#C07008" opacity="0.35"/>
    <circle cx="-1" cy="4" r="1.8" fill="#C07008" opacity="0.3"/>
    <circle cx="3" cy="-7" r="1.3" fill="#C07008" opacity="0.35"/>
  </g>
</svg>
